<svg xmlns="http://www.w3.org/2000/svg" xmlns:xlink="http://www.w3.org/1999/xlink" width="1000" zoomAndPan="magnify" viewBox="0 0 750 749.999995" height="1000" preserveAspectRatio="xMidYMid meet" version="1.0"><defs><clipPath id="68c358fddc"><path d="M 92 59.503906 L 744.722656 59.503906 L 744.722656 750 L 92 750 Z M 92 59.503906 " clip-rule="nonzero"/></clipPath></defs><path fill="#000000" d="M 489.976562 747.296875 C 459.910156 747.296875 432.789062 739.234375 407.078125 722.648438 C 378.261719 704.066406 352.332031 680.875 327.261719 658.449219 C 322.839844 654.496094 318.417969 650.539062 313.976562 646.609375 C 301.367188 635.433594 288.496094 624.125 276.054688 613.191406 C 232.03125 574.492188 186.496094 534.476562 143.738281 492.941406 C 134.339844 483.8125 127.910156 475.808594 122.871094 466.988281 C 107.617188 440.257812 108.144531 429.699219 125.539062 413.1875 C 130.121094 408.835938 138.371094 406.34375 148.171875 406.34375 C 159.359375 406.34375 170.605469 409.546875 179.011719 415.128906 C 192.988281 424.40625 219.847656 448.777344 245.824219 472.347656 C 266.203125 490.832031 285.449219 508.289062 299.089844 519.148438 C 300.304688 520.117188 301.726562 520.628906 303.1875 520.628906 C 303.195312 520.628906 303.195312 520.628906 303.195312 520.628906 C 305.699219 520.628906 308.054688 519.125 309.183594 516.808594 C 310.296875 514.523438 310.003906 511.941406 308.402344 509.894531 C 287.851562 483.589844 237.160156 431.445312 213.230469 407.546875 C 202.179688 396.515625 190.871094 385.335938 179.929688 374.535156 C 160.078125 354.921875 139.542969 334.636719 119.734375 314.355469 C 104.605469 298.878906 89.109375 280.382812 96.839844 256.789062 C 102.613281 239.171875 115.488281 229.464844 133.09375 229.464844 C 146.191406 229.464844 160.527344 235.121094 172.429688 244.980469 C 194.828125 263.546875 215.207031 285.46875 234.90625 306.660156 C 242.230469 314.539062 249.796875 322.679688 257.371094 330.546875 C 261.984375 335.335938 267.949219 341.730469 274.863281 349.128906 C 297.066406 372.910156 327.476562 405.46875 345.617188 419.835938 C 346.945312 420.882812 348.496094 421.441406 350.101562 421.441406 C 352.710938 421.441406 355.230469 419.929688 356.523438 417.574219 C 357.796875 415.25 357.691406 412.488281 356.238281 410.195312 C 349.273438 399.21875 339.308594 388.445312 330.515625 378.9375 C 325.648438 373.671875 321.042969 368.699219 317.457031 364.242188 C 302.054688 345.109375 285.480469 326.480469 269.453125 308.46875 C 255.234375 292.476562 240.527344 275.949219 226.699219 259.136719 C 220.757812 251.90625 212.214844 242.707031 202.324219 232.058594 C 178.894531 206.816406 149.726562 175.40625 141.203125 154.660156 C 133.890625 136.84375 139.082031 118.347656 154.4375 107.53125 C 162.191406 102.0625 170.480469 99.289062 179.070312 99.289062 C 188.523438 99.289062 198.113281 102.621094 207.5625 109.191406 C 222.550781 119.613281 234.195312 133.808594 245.457031 147.546875 C 249.132812 152.03125 252.933594 156.667969 256.8125 161.121094 C 296.820312 207.125 376.773438 297.566406 407.246094 331.496094 C 408.382812 332.761719 409.894531 333.453125 411.515625 333.453125 C 413.613281 333.453125 415.640625 332.257812 416.675781 330.40625 C 417.683594 328.605469 417.621094 326.445312 416.503906 324.628906 C 401.945312 300.875 367.015625 252.414062 315.492188 184.476562 C 313.222656 181.476562 310.851562 178.375 308.425781 175.207031 C 293.652344 155.878906 276.910156 133.96875 267.992188 117.078125 C 263.429688 108.054688 263.429688 98.308594 268.007812 88.15625 C 273.8125 75.292969 285.894531 65.761719 299.554688 63.292969 C 301.789062 62.890625 304.050781 62.679688 306.277344 62.679688 C 314.355469 62.679688 322.304688 65.34375 329.898438 70.597656 C 341.5 78.617188 361.105469 103.65625 381.863281 130.167969 C 395.839844 148.011719 410.292969 166.46875 423.664062 181.523438 C 431.300781 190.125 448.8125 212.957031 467.355469 237.128906 C 491.425781 268.515625 518.710938 304.09375 530.816406 316.886719 C 540.652344 327.273438 551.441406 332.539062 562.886719 332.539062 C 567.558594 332.539062 572.394531 331.648438 577.257812 329.898438 C 594.003906 323.871094 603.097656 310.140625 602.867188 291.242188 C 602.421875 253.542969 612.945312 223.371094 635.050781 198.992188 C 647.121094 185.679688 676.90625 174.84375 701.449219 174.84375 C 710.683594 174.84375 718.40625 176.414062 723.789062 179.367188 C 741.484375 189.09375 746.777344 206.914062 737.597656 225.882812 C 734.886719 231.476562 732.046875 237.128906 729.296875 242.589844 C 715.5 270 701.234375 298.347656 698.296875 331.367188 C 696.660156 349.800781 699.152344 367.574219 701.570312 384.765625 C 702.453125 391.027344 703.367188 397.5 704.054688 403.878906 C 705.574219 417.988281 707.847656 432.273438 710.046875 446.097656 C 715.3125 479.210938 720.765625 513.445312 716.113281 547.175781 L 716.09375 547.296875 L 716.089844 547.414062 C 713.402344 603.601562 681.09375 646.609375 654.464844 672.792969 C 623.101562 703.632812 581.75 728.496094 543.851562 739.296875 C 525.050781 744.609375 506.921875 747.296875 489.976562 747.296875 " fill-opacity="1" fill-rule="nonzero"/><g clip-path="url(#68c358fddc)"><path fill="#000000" d="M 306.277344 59.984375 C 303.910156 59.984375 301.511719 60.191406 299.070312 60.636719 C 284.347656 63.296875 271.695312 73.410156 265.542969 87.046875 C 261.507812 96.007812 259.882812 107.019531 265.601562 118.335938 C 276.101562 138.214844 297.140625 164.742188 313.34375 186.105469 C 339.242188 220.261719 393.734375 292.664062 414.203125 326.035156 C 415.640625 328.386719 413.664062 330.753906 411.515625 330.753906 C 410.734375 330.753906 409.929688 330.441406 409.253906 329.691406 C 378.839844 295.832031 298.46875 204.910156 258.84375 159.347656 C 243.0625 141.203125 229.339844 121.039062 209.101562 106.972656 C 199.214844 100.097656 189.035156 96.589844 179.070312 96.589844 C 170.046875 96.589844 161.191406 99.46875 152.882812 105.324219 C 137.632812 116.070312 130.320312 135.265625 138.710938 155.683594 C 150.988281 185.589844 204.371094 236.234375 224.613281 260.847656 C 254.0625 296.660156 286.335938 329.894531 315.351562 365.929688 C 325.542969 378.589844 343.316406 394.871094 353.953125 411.644531 C 356.101562 415.023438 353.335938 418.746094 350.101562 418.746094 C 349.171875 418.746094 348.199219 418.4375 347.292969 417.714844 C 323.734375 399.0625 278.851562 348.960938 259.316406 328.675781 C 231.347656 299.628906 205.035156 268.492188 174.152344 242.90625 C 161.703125 232.589844 146.820312 226.769531 133.09375 226.769531 C 116.125 226.769531 100.925781 235.660156 94.277344 255.949219 C 86.109375 280.867188 101.960938 300.03125 117.800781 316.246094 C 148.554688 347.71875 180.222656 378.402344 211.324219 409.460938 C 235.410156 433.507812 285.804688 485.355469 306.269531 511.554688 C 308.507812 514.414062 306.089844 517.933594 303.195312 517.933594 C 302.390625 517.933594 301.558594 517.664062 300.773438 517.035156 C 269.332031 492.007812 205.390625 429.40625 180.503906 412.878906 C 171.1875 406.691406 159.140625 403.644531 148.171875 403.644531 C 138.128906 403.644531 128.988281 406.195312 123.679688 411.230469 C 104.957031 429 104.84375 440.84375 120.527344 468.328125 C 126.347656 478.527344 133.683594 486.933594 141.859375 494.878906 C 196.753906 548.207031 254.9375 597.90625 312.191406 648.628906 C 342.285156 675.292969 371.609375 702.992188 405.609375 724.921875 C 432.644531 742.355469 460.816406 750 489.976562 750 C 507.820312 750 526.042969 747.132812 544.589844 741.898438 C 615.167969 721.78125 713.996094 647.660156 718.785156 547.550781 C 725.445312 499.289062 711.914062 451.542969 706.734375 403.59375 C 704.171875 379.785156 698.78125 356.429688 700.988281 331.605469 C 704.457031 292.574219 723.777344 260.640625 740.027344 227.058594 C 749.761719 206.949219 744.128906 187.464844 725.09375 177 C 718.984375 173.644531 710.675781 172.148438 701.449219 172.148438 C 677.015625 172.148438 646.195312 182.679688 633.050781 197.175781 C 608.542969 224.207031 599.746094 255.875 600.164062 291.269531 C 600.375 308.457031 592.382812 321.582031 576.34375 327.359375 C 571.691406 329.03125 567.210938 329.835938 562.886719 329.835938 C 551.773438 329.835938 541.753906 324.503906 532.78125 315.027344 C 511.488281 292.535156 443.351562 199.632812 425.679688 179.726562 C 392.199219 142.03125 351.257812 82.078125 331.4375 68.378906 C 323.828125 63.117188 315.359375 59.984375 306.277344 59.984375 Z M 306.277344 65.382812 C 313.796875 65.382812 321.230469 67.882812 328.367188 72.820312 C 339.628906 80.605469 359.113281 105.492188 379.742188 131.835938 C 393.742188 149.714844 408.210938 168.199219 421.640625 183.316406 C 429.214844 191.84375 446.703125 214.640625 465.210938 238.777344 C 489.328125 270.210938 516.65625 305.84375 528.859375 318.738281 C 539.21875 329.683594 550.671875 335.234375 562.886719 335.234375 C 567.875 335.234375 573.019531 334.296875 578.175781 332.4375 C 595.820312 326.082031 605.804688 311.054688 605.566406 291.207031 C 605.355469 273.117188 607.582031 257.277344 612.386719 242.785156 C 617.585938 227.113281 625.648438 213.382812 637.054688 200.804688 C 648.675781 187.980469 677.566406 177.546875 701.449219 177.546875 C 710.230469 177.546875 717.503906 178.992188 722.492188 181.738281 C 730.53125 186.152344 735.953125 192.449219 738.167969 199.941406 C 740.398438 207.480469 739.355469 216.042969 735.167969 224.707031 C 732.472656 230.28125 729.632812 235.921875 726.882812 241.375 C 712.972656 269.015625 698.589844 297.597656 695.605469 331.128906 C 693.941406 349.871094 696.460938 367.800781 698.898438 385.136719 C 699.777344 391.375 700.6875 397.832031 701.367188 404.167969 C 702.894531 418.34375 705.179688 432.667969 707.378906 446.515625 C 712.621094 479.429688 718.035156 513.46875 713.433594 546.808594 L 713.402344 547.046875 L 713.390625 547.285156 C 710.746094 602.601562 678.859375 645.023438 652.574219 670.871094 C 621.515625 701.410156 580.59375 726.023438 543.121094 736.699219 C 524.554688 741.941406 506.675781 744.601562 489.976562 744.601562 C 460.445312 744.601562 433.804688 736.675781 408.539062 720.382812 C 379.90625 701.914062 354.058594 678.792969 329.0625 656.433594 C 324.707031 652.542969 320.210938 648.523438 315.765625 644.585938 C 303.152344 633.414062 290.285156 622.097656 277.84375 611.164062 C 233.835938 572.488281 188.332031 532.496094 145.617188 491.007812 C 136.414062 482.0625 130.121094 474.238281 125.21875 465.648438 C 117.445312 452.027344 114.265625 443.28125 114.597656 436.390625 C 114.917969 429.628906 118.621094 423.476562 127.394531 415.152344 C 131.425781 411.324219 139.191406 409.046875 148.171875 409.046875 C 158.84375 409.046875 169.539062 412.082031 177.515625 417.375 C 191.320312 426.539062 218.105469 450.84375 244.011719 474.34375 C 264.417969 492.859375 283.695312 510.347656 297.410156 521.257812 C 299.105469 522.617188 301.109375 523.332031 303.195312 523.332031 C 306.726562 523.332031 310.027344 521.234375 311.613281 517.988281 C 313.164062 514.808594 312.75 511.070312 310.53125 508.230469 C 289.902344 481.824219 239.113281 429.574219 215.136719 405.636719 C 204.078125 394.59375 192.765625 383.414062 181.824219 372.605469 C 161.976562 353.003906 141.460938 332.730469 121.664062 312.46875 C 106.425781 296.875 92.152344 279.789062 99.410156 257.628906 C 104.789062 241.210938 116.753906 232.167969 133.09375 232.167969 C 145.570312 232.167969 159.285156 237.59375 170.703125 247.058594 C 192.96875 265.507812 213.28125 287.367188 232.925781 308.496094 C 240.253906 316.382812 247.835938 324.539062 255.425781 332.421875 C 260.023438 337.191406 265.988281 343.578125 272.890625 350.976562 C 295.15625 374.816406 325.640625 407.460938 343.9375 421.949219 C 345.75 423.382812 347.882812 424.144531 350.101562 424.144531 C 353.730469 424.144531 357.097656 422.125 358.886719 418.875 C 360.648438 415.675781 360.507812 411.890625 358.515625 408.75 C 351.425781 397.570312 341.371094 386.699219 332.503906 377.109375 C 327.664062 371.878906 323.089844 366.933594 319.558594 362.546875 C 304.117188 343.363281 287.519531 324.707031 271.46875 306.667969 C 257.265625 290.699219 242.578125 274.1875 228.785156 257.421875 C 222.789062 250.128906 214.222656 240.902344 204.304688 230.222656 C 181.019531 205.140625 152.039062 173.929688 143.703125 153.628906 C 140.199219 145.101562 139.640625 136.402344 142.089844 128.46875 C 144.394531 121 149.207031 114.523438 155.992188 109.738281 C 163.289062 104.59375 171.046875 101.992188 179.070312 101.992188 C 187.964844 101.992188 197.035156 105.160156 206.019531 111.40625 C 220.703125 121.613281 231.714844 135.039062 243.367188 149.257812 C 247.058594 153.757812 250.871094 158.410156 254.773438 162.898438 C 294.8125 208.929688 374.773438 299.386719 405.234375 333.300781 C 406.894531 335.140625 409.121094 336.15625 411.515625 336.15625 C 414.621094 336.15625 417.503906 334.453125 419.03125 331.722656 C 420.523438 329.0625 420.441406 325.878906 418.808594 323.210938 C 404.203125 299.398438 369.222656 250.859375 317.640625 182.84375 C 315.363281 179.84375 312.992188 176.738281 310.570312 173.5625 C 295.878906 154.332031 279.222656 132.546875 270.398438 115.855469 C 266.226562 107.570312 266.253906 98.625 270.472656 89.269531 C 275.90625 77.195312 287.238281 68.261719 300.03125 65.949219 C 302.113281 65.570312 304.214844 65.382812 306.277344 65.382812 " fill-opacity="1" fill-rule="nonzero"/></g><path fill="#000000" d="M 409.6875 20.765625 C 454.816406 46.164062 491.351562 85.265625 514.234375 131.683594 C 520.570312 144.535156 525.664062 157.828125 529.699219 171.625 C 532.886719 182.496094 549.921875 177.871094 546.714844 166.929688 C 531.324219 114.359375 499.679688 66.601562 457.207031 31.984375 C 445.082031 22.105469 432.226562 13.203125 418.59375 5.53125 C 408.683594 -0.0429688 399.78125 15.191406 409.6875 20.765625 " fill-opacity="1" fill-rule="nonzero"/><path fill="#000000" d="M 391.617188 72.777344 C 431.585938 96.242188 461.085938 135.464844 473.785156 179.941406 C 476.894531 190.84375 493.925781 186.210938 490.796875 175.253906 C 479.988281 137.398438 458.003906 102.542969 427.914062 77.058594 C 419.351562 69.796875 410.207031 63.222656 400.523438 57.542969 C 390.707031 51.78125 381.816406 67.019531 391.617188 72.777344 " fill-opacity="1" fill-rule="nonzero"/><path fill="#000000" d="M 5.402344 497.054688 C 29.070312 546.320312 68.308594 587.980469 115.664062 615.195312 C 129.308594 623.042969 143.671875 629.613281 158.457031 635.003906 C 162.933594 636.632812 168.117188 633.167969 169.3125 628.839844 C 170.65625 623.929688 167.640625 619.628906 163.148438 617.988281 C 115.34375 600.574219 72.675781 567.851562 43.136719 526.320312 C 34.558594 514.261719 27.042969 501.480469 20.636719 488.144531 C 18.574219 483.851562 12.441406 482.714844 8.566406 484.980469 C 4.179688 487.550781 3.328125 492.742188 5.402344 497.054688 " fill-opacity="1" fill-rule="nonzero"/><path fill="#000000" d="M 58.46875 482.378906 C 76.039062 517.304688 104.757812 546.472656 138.824219 565.515625 C 148.90625 571.148438 159.507812 575.863281 170.378906 579.742188 C 174.863281 581.335938 180.03125 577.929688 181.226562 573.578125 C 182.570312 568.691406 179.570312 564.332031 175.066406 562.726562 C 131.503906 547.1875 94.5 514.804688 73.703125 473.472656 C 71.5625 469.21875 65.558594 468.011719 61.632812 470.308594 C 57.304688 472.84375 56.316406 478.109375 58.46875 482.378906 " fill-opacity="1" fill-rule="nonzero"/></svg>