<svg xmlns="http://www.w3.org/2000/svg" xmlns:xlink="http://www.w3.org/1999/xlink" width="330" height="240" preserveAspectRatio="xMidYMid meet" version="1.0" viewBox="0 0 247.5 180" zoomAndPan="magnify"><g fill="#181818" fill-opacity="1"><g><g><path d="M 73.921875 -1.761719 C 67.152344 -16.789062 59.839844 -31.679688 53.070312 -46.980469 C 63.902344 -50.90625 72.972656 -59.570312 72.972656 -76.089844 C 72.972656 -108.039062 42.511719 -108.308594 36.417969 -108.308594 L 1.355469 -108.308594 C 0.675781 -108.308594 0 -107.632812 0 -107.09375 L 0 -88.679688 L 36.417969 -88.679688 C 39.667969 -88.679688 52.394531 -88.003906 52.394531 -76.089844 C 52.394531 -64.175781 40.886719 -63.632812 36.417969 -63.632812 L 0 -63.632812 L 0 -1.21875 C 0 -0.675781 0.675781 0 1.355469 0 L 19.089844 0 C 19.902344 0 20.578125 -0.675781 20.578125 -1.21875 L 20.578125 -43.730469 L 32.222656 -43.730469 L 51.988281 -0.8125 C 52.125 -0.40625 52.9375 0 53.34375 0 L 72.703125 0 C 73.785156 0 74.328125 -0.8125 73.921875 -1.761719 Z M 73.921875 -1.761719" transform="translate(13.629606, 143.048134)"/></g></g></g><g fill="#181818" fill-opacity="1"><g><g><path d="M 112.507812 -88.410156 L 98.699219 -51.175781 L 77.304688 -107.5 C 77.035156 -108.039062 76.496094 -108.308594 75.953125 -108.308594 L 57.539062 -108.308594 C 57 -108.308594 56.457031 -108.039062 56.320312 -107.5 L 34.792969 -51.175781 L 21.121094 -88.410156 L 0 -88.410156 L 33.578125 -0.8125 C 33.980469 0.269531 35.742188 0.269531 36.148438 -0.8125 L 66.746094 -81.097656 L 97.34375 -0.8125 C 97.75 0.269531 99.511719 0.269531 99.917969 -0.8125 L 133.628906 -88.410156 Z M 112.507812 -88.410156" transform="translate(106.359611, 143.048134)"/></g></g></g></svg>